<?xml version="1.0" encoding="UTF-8"?>
<svg id="Layer_1" data-name="Layer 1" xmlns="http://www.w3.org/2000/svg" viewBox="0 0 68 68">
  <g id="icon">
    <circle cx="34" cy="34" r="34" style="fill: #00b0b1; stroke-width: 0px;"/>
    <polygon points="33.55 25 33.55 32.69 30.68 26.68 29.32 27.32 33.62 36.32 34.94 36.39 38.64 30.39 37.36 29.61 35.05 33.35 35.05 25 33.55 25" style="fill: #fff; stroke-width: 0px;"/>
    <path d="M14,33c-3.31,0-6,2.69-6,6h12c0-3.31-2.69-6-6-6Z" style="fill: #fff; stroke-width: 0px;"/>
    <path d="M25,32c-2.21,0-4,1.79-4,4h8c0-2.21-1.79-4-4-4Z" style="fill: #fff; stroke-width: 0px;"/>
    <path d="M46,25.23c-2.16,0-3.19,0-3.68-.09-1.04-2.24-2.47-4.27-4.23-6,1.59-1.17,3.34-2.12,5.19-2.82,1.71,0,11.59,6.91,11.59,11.6h1.5c0-5.44-10.43-13.1-13.09-13.1-1.14,0-4.44,2-6.27,3.24-4-3.76-8.75-6.67-10.59-6.67-3.36,0-16.53,9.67-16.53,16.53h1.5c0-6.08,12.8-15,15-15s15,9,15,15h1.5c0-.68-.12-1.35-.33-2,1.08,0,3.46.32,6.39,3,4,3.7,0,7.76-11,10-20.12,4.19-25.48,8.38-26.1,13.17,5.29,6.87,13.48,10.9,22.15,10.91.74,0,1.46,0,2.18-.09-5-3.16-.94-10.51,3.82-13.91,7-5,8-4,14-10,8-8-4-13.77-8-13.77Z" style="fill: #fff; stroke-width: 0px;"/>
  </g>
</svg>