<?xml version="1.0" encoding="UTF-8"?>
<svg id="Layer_1" data-name="Layer 1" xmlns="http://www.w3.org/2000/svg" viewBox="0 0 117 68">
  <g id="icon">
    <circle cx="34" cy="34" r="34" style="fill: #00b0b1; stroke-width: 0px;"/>
    <polygon points="33.55 25 33.55 32.69 30.68 26.68 29.32 27.32 33.62 36.32 34.94 36.39 38.64 30.39 37.36 29.61 35.05 33.35 35.05 25 33.55 25" style="fill: #fff; stroke-width: 0px;"/>
    <path d="M14,33c-3.31,0-6,2.69-6,6h12c0-3.31-2.69-6-6-6Z" style="fill: #fff; stroke-width: 0px;"/>
    <path d="M25,32c-2.21,0-4,1.79-4,4h8c0-2.21-1.79-4-4-4Z" style="fill: #fff; stroke-width: 0px;"/>
    <path d="M46,25.23c-2.16,0-3.19,0-3.68-.09-1.04-2.24-2.47-4.27-4.23-6,1.59-1.17,3.34-2.12,5.19-2.82,1.71,0,11.59,6.91,11.59,11.6h1.5c0-5.44-10.43-13.1-13.09-13.1-1.14,0-4.44,2-6.27,3.24-4-3.76-8.75-6.67-10.59-6.67-3.36,0-16.53,9.67-16.53,16.53h1.5c0-6.08,12.8-15,15-15s15,9,15,15h1.5c0-.68-.12-1.35-.33-2,1.08,0,3.46.32,6.39,3,4,3.7,0,7.76-11,10-20.12,4.19-25.48,8.38-26.1,13.17,5.29,6.87,13.48,10.9,22.15,10.91.74,0,1.46,0,2.18-.09-5-3.16-.94-10.51,3.82-13.91,7-5,8-4,14-10,8-8-4-13.77-8-13.77Z" style="fill: #fff; stroke-width: 0px;"/>
  </g>
  <g>
    <g id="background">
      <circle cx="83" cy="34" r="34" style="fill: #006ccc; stroke-width: 0px;"/>
    </g>
    <g id="Layer_3" data-name="Layer 3">
      <path d="M100.56,35c-.8,0-1.44.65-1.44,1.44,0,.8.65,1.44,1.44,1.44.8,0,1.44-.65,1.44-1.44,0-.02,0-.03,0-.05-.03-.78-.66-1.39-1.44-1.39Z" style="fill: #fff; stroke-width: 0px;"/>
      <path d="M77.2,49.4c-3.09,0-5.6,2.51-5.6,5.6h11.2c0-3.09-2.51-5.6-5.6-5.6Z" style="fill: #fff; stroke-width: 0px;"/>
      <path d="M78.37,16.24c3.62.63,7.17,1.67,10.56,3.09,2.68,1.26,5.61,1.92,8.57,1.92,6.78,0,9-2.67,9.09-2.78l-1.17-.95s-2,2.23-7.92,2.23c-2.77,0-5.5-.62-8-1.81-3.49-1.46-7.13-2.53-10.86-3.18-11.2-2-19.73,4.37-20.09,4.64l.92,1.2c.07-.07,8.37-6.28,18.9-4.36Z" style="fill: #fff; stroke-width: 0px;"/>
      <path d="M106.57,35.62c-2.56-1.97-5.51-3.39-8.66-4.15l-3.6-2.55c-.9-.64-2.13-.53-2.91.25l-3.18,3.18c-1.28.5-2.51,1.11-3.68,1.83l-7.39-2c-.53-.15-1.1.04-1.43.48-.33.44-.36,1.04-.07,1.51l2.35,3.77-2.31,3.79c-.36.64-.14,1.46.51,1.83.19.11.41.17.63.17.12,0,.24-.02.36-.05l7.46-2c1.94,1.19,4.06,2.07,6.28,2.6l-.2.4c-.46.93-.08,2.05.85,2.51.25.13.53.19.81.19h2.18c1.03,0,1.86-.84,1.86-1.87v-.91c3.71-.58,7.22-2.09,10.18-4.41,1.26-.94,1.52-2.73.58-3.99-.16-.22-.36-.42-.58-.58h-.04ZM105.67,39c-2.71,2.1-5.9,3.51-9.28,4.09v-2.53h-3.64l-1.17,2.34c-3.56-.88-6.85-2.59-9.61-5,2.49-2.16,5.4-3.77,8.55-4.74l6.53-.33c3.14.67,6.08,2.04,8.62,4,.35.25.55.66.55,1.09,0,.43-.2.83-.55,1.08Z" style="fill: #fff; stroke-width: 0px;"/>
      <path d="M70.78,44.78l-1.93,1.94v-5.79c.02-1.14-.34-2.25-1-3.17l-1.22-1.65,3.27-3.31-2.12-2.12-3,3-1.87-2.55-2.42,1.78,4.88,6.64c.3.41.46.9.46,1.4v2.84l-4.42-4.4-2.12,2.12,6.56,6.49v7h3v-3.21c.07-.61.35-1.18.79-1.62l3.26-3.27-2.12-2.12Z" style="fill: #fff; stroke-width: 0px;"/>
      <circle cx="74" cy="22" r="2" style="fill: #fff; stroke-width: 0px;"/>
      <circle cx="66" cy="26" r="2" style="fill: #fff; stroke-width: 0px;"/>
    </g>
  </g>
</svg>