<?xml version="1.0" encoding="UTF-8"?>
<svg id="Layer_1" data-name="Layer 1" xmlns="http://www.w3.org/2000/svg" viewBox="0 0 166 68">
  <g id="icon">
    <path d="M46.78,50.57c-2.13.14-4.26-.08-6.32-.63h-.08c-2.25-.57-4.43-1.38-6.67-2.01-6.98-2.19-14.55-1.55-21.06,1.79.48.58.97,1.17,1.5,1.68,2.01-.36,4.04-.54,6.08-.54,1.36,0,2.73.09,4.08.25.95.12,1.87.26,2.78.44h-.56c-3.55,0-7.07.55-10.45,1.63.62.53,1.26,1.03,1.93,1.5,1.09-.11,2.18-.16,3.29-.16,2.6,0,5.2.29,7.73.88-2.65.05-5.27.44-7.82,1.17,3.57,1.79,7.52,2.72,11.51,2.71,1.74,0,3.47-.17,5.17-.53,1.09-.22,2.17-.51,3.22-.88l.33-.12c.7-.25,1.38-.54,2.05-.84-1.3-.74-2.65-1.41-4.02-2,.7,0,1.4.07,2.12.08h.5c1.81,0,3.61-.11,5.41-.34.85-.59,1.66-1.23,2.43-1.92h0c-.21.19-1.25.07-1.54.07h-1.54c-3.39-.04-6.76-.48-10.04-1.32,2.18.35,4.39.53,6.6.53,2.7,0,5.4-.26,8.05-.78.4-.42.77-.85,1.17-1.3-.34.41-2.4.42-2.94.48-.99.11-1.93.09-2.91.16Z" style="fill: red; stroke-width: 0px;"/>
    <path d="M37.73,22.61h.33c2.41,0,5.03,1.86,4.97,4.45-.02,1.61-1.07,3.02-2.6,3.51h0c-.76.25-1.47.65-2.08,1.17.71.13,1.34.53,1.77,1.1.17.22.3.47.4.74.84-.76,2.05-.95,3.09-.49-.08,0,.53-.92.58-.99.24-.27.52-.5.83-.68,1.19-.7,2.7-.56,3.74.35.83-1.92,3.05-2.8,4.97-1.97,1.05.46,1.84,1.36,2.14,2.47.19-.05.38-.08.57-.08.88,0,1.68.54,2.02,1.36,0-2.46-.35-4.9-1.04-7.25-3.15-3.91-7-7.2-11.34-9.72-3.04,1.65-5.85,3.68-8.37,6.05Z" style="fill: red; stroke-width: 0px;"/>
    <path d="M51.46,40.33c-1.17-.43-2.42-.82-3.66-1.17-.7-.19-1.42-.36-2.13-.51-10.94-2.4-22.38-.52-31.96,5.26-1.17.7-2.34,1.44-3.39,2.25.36.65.75,1.28,1.17,1.88,2.25-1.76,4.82-3.06,7.57-3.84,2.79-.79,5.71-.99,8.59-.61,2.24.28,4.42.91,6.46,1.87h0c6.34,3.05,13.57,3.7,20.36,1.84.93-1.45,1.72-2.99,2.34-4.6.08-.23-4.81-2.14-5.34-2.38Z" style="fill: red; stroke-width: 0px;"/>
    <path d="M58.3,34.45c-.31-.91-1.29-1.41-2.21-1.1-.47.16-.85.51-1.05.96.37-1.63-.64-3.26-2.28-3.63s-3.26.64-3.63,2.28c-.01.06-.03.12-.04.19-.53-.59-1.21-1.02-1.98-1.24-1.34-.27-2.65.59-2.92,1.94-.09.46-.05.94.12,1.39-.22-.94-1.03-1.63-2-1.68-.95,0-1.79.61-2.07,1.51,0-1.37-1.1-2.49-2.47-2.49-1.37,0-2.49,1.1-2.49,2.47,0,.2.02.4.07.6,7.68-.22,15.28,1.6,22.03,5.26.51-1.69.84-3.43.99-5.19.02-.25.02-.51,0-.76,0-.16-.04-.32-.08-.48Z" style="fill: red; stroke-width: 0px;"/>
    <path d="M15.41,41.26c.63-.36,1.28-.71,1.93-1.04,1.72-.86,3.49-1.61,5.31-2.23l.76-.26c.09-.23.2-.47.3-.7,1.66-3.63,4.67-6.48,8.39-7.93l.78-.28c.8-.27,1.61-.48,2.45-.61.89,0,1.77-.13,2.61-.42.88-.49,1.36-1.49,1.17-2.48-.19-.67-.57-1.26-1.09-1.72-3.88-3.8-8.46-6.81-13.48-8.88-2.32.94-4.55,2.09-6.66,3.44l-.29.18c-2.72,1.78-5.21,3.88-7.44,6.25,1.83-3.61,4.47-6.75,7.71-9.17l.66-.47c11.37-7.93,26.96-5.56,35.46,5.39h.83c-7.27-12.14-22.98-16.13-35.17-8.94-.4.23-.77.47-1.17.73-4.9,3.27-8.54,8.12-10.31,13.75-.52,1.67-.87,3.39-1.04,5.12-.13.84-.13,1.7-.13,2.56,0,.87.05,1.74.14,2.61.07.76.19,1.51.33,2.25.44,2.33,1.21,4.58,2.27,6.69.95-.76,1.94-1.49,2.95-2.19s1.79-1.11,2.73-1.64ZM24.14,28.64c0-.08,0-.09.09-.09h.49c.06,0,.08,0,.08.07v3.09c0,.06,0,.07-.08.07h-.56s-.06.02-.09,0c-.4-.69-.81-1.37-1.17-2.05v-.07h0v2.07s0,.09-.08.08h-.68v-3.19c0-.06,0-.07.07-.07h.55s.09.03.12.07c.33.57.67,1.17,1.01,1.71.08.14.16.28.26.41,0,0,0-2.09,0-2.09ZM10.51,30.99c-.53-3.72,2.02-7.17,5.73-7.75,2.78-.42,5.54.86,7.02,3.25.14.23.07.27-.16.26h-1.59c-.15.01-.29-.05-.39-.16-1.26-1.44-3.25-2.02-5.09-1.49-1.9.44-3.35,1.97-3.71,3.88-.62,2.76,1.12,5.49,3.88,6.1.13.03.27.05.41.07,1.63.27,3.29-.28,4.43-1.47.07-.06.12-.16.22-.16h2.06c-.2.39-.45.75-.75,1.08-1.74,2.1-4.59,2.92-7.18,2.06-2.66-.67-4.61-2.94-4.88-5.67ZM19.52,30.33c.02.16.05.32.11.48.12.33.47.52.82.46.29-.01.53-.22.6-.5.02-.06.08-.1.14-.09h.51v.07c-.09.52-.48.94-.99,1.06-.46.14-.96.05-1.35-.23-.25-.19-.43-.47-.5-.78-.15-.46-.15-.96,0-1.42.17-.46.57-.79,1.05-.87.39-.1.81-.05,1.17.14.33.17.56.48.62.84,0,.11,0,.12-.09.12h-.48c-.07,0-.11,0-.13-.09-.05-.21-.21-.38-.42-.43-.42-.14-.87.08-1.01.49-.01.03-.02.07-.03.11-.03.22-.03.44,0,.66h-.01ZM15.7,29.62v-1.1c0-.06,0-.08.08-.08h.57s.08,0,.08.08v2.04c-.02.08-.02.17,0,.26.09.26.36.42.63.37h.2c.25-.06.41-.3.39-.55v-2.09c0-.12,0-.11.11-.11h.53s.07,0,.07.07v2.06c0,.27-.08.54-.23.76-.16.2-.39.34-.64.39-.34.09-.69.09-1.03,0-.46-.12-.77-.54-.75-1.02v-1.08ZM14.42,28.63c0-.07,0-.08.08-.08h.54c.07,0,.08,0,.08.08v3.07c0,.07,0,.09-.09.08h-.51c-.07,0-.09,0-.09-.08v-3.07Z" style="fill: red; stroke-width: 0px;"/>
  </g>
  <g>
    <path d="M80.89,20.99c-.54.23-1.09.34-1.65.34-.87,0-1.66-.15-2.36-.46-.7-.3-1.29-.72-1.77-1.26-.48-.53-.85-1.16-1.1-1.88-.26-.72-.38-1.5-.38-2.33s.13-1.65.38-2.38c.26-.73.62-1.37,1.1-1.91.48-.54,1.07-.97,1.77-1.28.7-.31,1.49-.46,2.36-.46.59,0,1.16.09,1.7.26.55.18,1.05.44,1.49.78s.81.76,1.1,1.26c.29.5.46,1.08.53,1.73h-2.4c-.15-.64-.44-1.12-.86-1.44-.43-.32-.94-.48-1.55-.48-.57,0-1.04.11-1.44.33s-.71.51-.96.88c-.25.37-.42.79-.54,1.26-.11.47-.17.96-.17,1.46s.06.95.17,1.4c.11.45.29.86.54,1.22.25.36.57.65.96.87s.87.33,1.44.33c.83,0,1.47-.21,1.93-.63.45-.42.72-1.03.79-1.83h-2.53v-1.87h4.8v6.18h-1.6l-.26-1.3c-.45.58-.94.98-1.49,1.21Z" style="fill: red; stroke-width: 0px;"/>
    <path d="M88.36,9.66v11.42h-2.27v-11.42h2.27Z" style="fill: red; stroke-width: 0px;"/>
    <path d="M90.2,15.15c.2-.54.49-1,.86-1.38.37-.38.82-.67,1.34-.88s1.11-.31,1.76-.31,1.24.1,1.77.31c.53.21.98.5,1.35.88.37.38.66.84.86,1.38.2.54.3,1.14.3,1.8s-.1,1.26-.3,1.79c-.2.53-.49.99-.86,1.37-.37.38-.82.67-1.35.87-.53.2-1.12.3-1.77.3s-1.24-.1-1.76-.3c-.52-.2-.97-.49-1.34-.87-.37-.38-.66-.83-.86-1.37-.2-.53-.3-1.13-.3-1.79s.1-1.26.3-1.8ZM92.26,17.92c.06.31.17.6.33.85.16.25.36.45.62.6s.58.22.96.22.71-.07.97-.22c.26-.15.47-.35.62-.6.16-.25.26-.53.33-.85.06-.31.1-.64.1-.97s-.03-.66-.1-.98c-.06-.32-.17-.6-.33-.85-.15-.25-.36-.45-.62-.6-.26-.15-.58-.23-.97-.23s-.7.08-.96.23c-.26.15-.46.35-.62.6-.15.25-.26.53-.33.85-.06.32-.1.65-.1.98s.03.65.1.97Z" style="fill: red; stroke-width: 0px;"/>
    <path d="M102.2,9.66v4.16h.03c.28-.43.65-.74,1.13-.94.47-.2.97-.3,1.48-.3.42,0,.83.09,1.23.26.41.17.77.43,1.1.78.33.35.59.8.79,1.35.2.55.3,1.2.3,1.96s-.1,1.41-.3,1.96c-.2.55-.47,1-.79,1.35-.33.35-.69.61-1.1.78s-.82.26-1.23.26c-.61,0-1.15-.1-1.63-.29-.48-.19-.84-.52-1.09-.98h-.03v1.06h-2.16v-11.42h2.27ZM105.88,15.94c-.08-.32-.19-.6-.35-.85s-.36-.44-.6-.58c-.24-.14-.53-.22-.87-.22s-.62.07-.86.22-.45.34-.61.58c-.16.25-.28.53-.35.85-.08.32-.11.66-.11,1.01s.04.67.11.99c.07.32.19.6.35.85.16.25.36.44.61.58s.53.22.86.22.63-.07.87-.22c.24-.14.44-.34.6-.58.16-.25.28-.53.35-.85.07-.32.11-.65.11-.99s-.04-.69-.11-1.01Z" style="fill: red; stroke-width: 0px;"/>
    <path d="M109.6,15.35c.03-.53.17-.98.4-1.33s.53-.63.9-.85c.36-.21.77-.37,1.22-.46s.91-.14,1.37-.14c.42,0,.84.03,1.26.09.43.06.82.17,1.17.34.35.17.64.41.86.71.22.3.34.71.34,1.21v4.3c0,.37.02.73.06,1.07.04.34.12.6.22.77h-2.3c-.04-.13-.08-.26-.1-.39-.03-.13-.05-.27-.06-.41-.36.37-.79.63-1.28.78-.49.15-.99.22-1.5.22-.39,0-.76-.05-1.1-.14-.34-.1-.64-.25-.9-.45s-.46-.46-.6-.77c-.14-.31-.22-.68-.22-1.1,0-.47.08-.86.25-1.16s.38-.55.64-.73c.26-.18.56-.32.9-.41.34-.09.67-.16,1.02-.22.34-.05.68-.1,1.01-.13.33-.03.62-.08.88-.14s.46-.16.61-.28.22-.3.21-.54c0-.25-.04-.44-.12-.58-.08-.14-.19-.26-.32-.34-.13-.08-.29-.13-.46-.16-.18-.03-.37-.04-.57-.04-.45,0-.8.1-1.06.29s-.41.51-.45.96h-2.27ZM114.85,17.03c-.1.09-.22.15-.36.2-.14.05-.3.09-.46.12-.17.03-.34.06-.52.08s-.36.05-.54.08c-.17.03-.34.07-.5.13s-.31.13-.43.22c-.12.09-.22.21-.3.34-.08.14-.11.31-.11.53s.04.37.11.51c.07.14.18.25.3.33.13.08.28.14.45.17.17.03.35.05.53.05.45,0,.79-.07,1.04-.22s.43-.33.54-.54.19-.42.22-.63c.03-.21.04-.38.04-.51v-.85Z" style="fill: red; stroke-width: 0px;"/>
    <path d="M121.22,9.66v11.42h-2.27v-11.42h2.27Z" style="fill: red; stroke-width: 0px;"/>
    <path d="M82.66,27.66v2.11h-6.03v2.45h5.54v1.95h-5.54v2.8h6.16v2.11h-8.67v-11.42h8.54Z" style="fill: red; stroke-width: 0px;"/>
    <path d="M88.2,32.3c-.36,0-.67.08-.91.25-.25.17-.45.38-.6.64-.15.26-.26.55-.33.86-.06.31-.1.63-.1.94s.03.6.1.91c.06.31.17.59.31.84.14.25.34.46.58.62s.54.24.9.24c.54,0,.96-.15,1.26-.46.29-.3.48-.71.55-1.22h2.19c-.15,1.1-.58,1.94-1.28,2.51-.7.58-1.61.86-2.7.86-.62,0-1.19-.1-1.7-.31s-.96-.5-1.32-.87c-.36-.37-.65-.82-.85-1.34-.2-.52-.3-1.09-.3-1.7s.09-1.23.28-1.78.46-1.02.82-1.42.81-.71,1.33-.94c.52-.22,1.12-.34,1.79-.34.49,0,.96.06,1.42.19.45.13.86.32,1.22.58.36.26.65.59.87.98.22.39.35.85.38,1.38h-2.22c-.15-.95-.71-1.42-1.68-1.42Z" style="fill: red; stroke-width: 0px;"/>
    <path d="M93.48,33.15c.2-.54.49-1,.86-1.38.37-.38.82-.67,1.34-.88s1.11-.31,1.76-.31,1.24.1,1.77.31c.53.21.98.5,1.35.88.37.38.66.84.86,1.38.2.54.3,1.14.3,1.8s-.1,1.26-.3,1.79c-.2.53-.49.99-.86,1.37-.37.38-.82.67-1.35.87-.53.2-1.12.3-1.77.3s-1.24-.1-1.76-.3c-.52-.2-.97-.49-1.34-.87-.37-.38-.66-.83-.86-1.37-.2-.53-.3-1.13-.3-1.79s.1-1.26.3-1.8ZM95.54,35.92c.06.31.17.6.33.85.16.25.36.45.62.6s.58.22.96.22.71-.07.97-.22c.26-.15.47-.35.62-.6.16-.25.26-.53.33-.85.06-.31.1-.64.1-.97s-.03-.66-.1-.98c-.06-.32-.17-.6-.33-.85-.15-.25-.36-.45-.62-.6-.26-.15-.58-.23-.97-.23s-.7.08-.96.23c-.26.15-.46.35-.62.6-.15.25-.26.53-.33.85-.06.32-.1.65-.1.98s.03.65.1.97Z" style="fill: red; stroke-width: 0px;"/>
    <path d="M105.12,37.02c.1.18.23.32.39.43s.34.19.55.25c.21.05.42.08.65.08.16,0,.33-.02.5-.06.18-.04.34-.1.48-.18.14-.08.26-.19.36-.32.1-.13.14-.3.14-.5,0-.34-.23-.6-.68-.77-.45-.17-1.08-.34-1.9-.51-.33-.07-.65-.16-.97-.26-.31-.1-.59-.23-.84-.4s-.44-.37-.59-.62-.22-.56-.22-.92c0-.53.1-.97.31-1.31s.48-.61.82-.81c.34-.2.73-.34,1.15-.42.43-.08.86-.12,1.31-.12s.88.04,1.3.13c.42.09.8.23,1.13.43.33.2.6.47.82.81s.35.76.39,1.27h-2.16c-.03-.44-.2-.73-.5-.89-.3-.15-.65-.23-1.06-.23-.13,0-.27,0-.42.02-.15.02-.29.05-.41.1-.12.05-.23.13-.31.23-.08.1-.13.24-.13.41,0,.2.08.37.22.5.15.13.34.23.58.31.24.08.51.15.82.22.31.06.62.13.94.21.33.07.65.17.97.27.31.11.59.25.84.42.25.18.44.39.59.66.15.26.22.58.22.97,0,.54-.11,1-.33,1.37-.22.37-.5.66-.86.89-.35.22-.75.38-1.21.47-.45.09-.92.14-1.38.14s-.95-.05-1.41-.14c-.46-.1-.87-.26-1.22-.48s-.65-.52-.88-.89c-.23-.37-.35-.83-.38-1.38h2.16c0,.25.05.46.15.63Z" style="fill: red; stroke-width: 0px;"/>
    <path d="M114.85,41.54c-.44.29-1.05.43-1.82.43-.23,0-.47,0-.7-.02-.23-.02-.46-.03-.7-.06v-1.87c.21.02.43.04.66.06.22.02.45.03.67.02.3-.03.52-.15.66-.35.14-.2.22-.43.22-.67,0-.18-.03-.35-.1-.51l-2.9-7.76h2.42l1.87,5.66h.03l1.81-5.66h2.35l-3.46,9.3c-.25.67-.59,1.15-1.02,1.44Z" style="fill: red; stroke-width: 0px;"/>
    <path d="M122.01,37.02c.1.18.23.32.39.43s.34.19.55.25c.21.05.42.08.65.08.16,0,.33-.02.5-.06.18-.04.34-.1.48-.18.14-.08.26-.19.36-.32.1-.13.14-.3.14-.5,0-.34-.23-.6-.68-.77-.45-.17-1.08-.34-1.9-.51-.33-.07-.65-.16-.97-.26-.31-.1-.59-.23-.84-.4s-.44-.37-.59-.62-.22-.56-.22-.92c0-.53.1-.97.31-1.31s.48-.61.82-.81c.34-.2.73-.34,1.15-.42.43-.08.86-.12,1.31-.12s.88.04,1.3.13c.42.09.8.23,1.13.43.33.2.6.47.82.81s.35.76.39,1.27h-2.16c-.03-.44-.2-.73-.5-.89-.3-.15-.65-.23-1.06-.23-.13,0-.27,0-.42.02-.15.02-.29.05-.41.1-.12.05-.23.13-.31.23-.08.1-.13.24-.13.41,0,.2.08.37.22.5.15.13.34.23.58.31.24.08.51.15.82.22.31.06.62.13.94.21.33.07.65.17.97.27.31.11.59.25.84.42.25.18.44.39.59.66.15.26.22.58.22.97,0,.54-.11,1-.33,1.37-.22.37-.5.66-.86.89-.35.22-.75.38-1.21.47-.45.09-.92.14-1.38.14s-.95-.05-1.41-.14c-.46-.1-.87-.26-1.22-.48s-.65-.52-.88-.89c-.23-.37-.35-.83-.38-1.38h2.16c0,.25.05.46.15.63Z" style="fill: red; stroke-width: 0px;"/>
    <path d="M133.24,30.81v1.52h-1.66v4.1c0,.38.06.64.19.77.13.13.38.19.77.19.13,0,.25,0,.37-.02.12-.01.23-.03.34-.05v1.76c-.19.03-.41.05-.64.06-.23.01-.46.02-.69.02-.35,0-.69-.02-1-.07-.31-.05-.59-.14-.83-.28s-.43-.34-.57-.59c-.14-.26-.21-.59-.21-1.01v-4.88h-1.38v-1.52h1.38v-2.48h2.27v2.48h1.66Z" style="fill: red; stroke-width: 0px;"/>
    <path d="M136.76,37.1c.34.33.83.5,1.47.5.46,0,.85-.11,1.18-.34.33-.23.53-.47.61-.73h2c-.32.99-.81,1.7-1.47,2.13-.66.43-1.46.64-2.4.64-.65,0-1.24-.1-1.76-.31s-.96-.5-1.33-.89c-.36-.38-.64-.84-.84-1.38-.2-.53-.3-1.12-.3-1.76s.1-1.19.3-1.73c.2-.53.49-.99.86-1.38.37-.39.82-.7,1.34-.92.52-.22,1.09-.34,1.72-.34.7,0,1.32.14,1.84.41.52.27.95.64,1.29,1.1.34.46.58.98.73,1.57.15.59.2,1.2.16,1.84h-5.97c.03.74.22,1.27.56,1.6ZM139.33,32.74c-.27-.3-.69-.45-1.24-.45-.36,0-.66.06-.9.18-.24.12-.43.27-.58.46-.14.18-.25.37-.3.58s-.09.38-.1.54h3.7c-.11-.58-.3-1.01-.57-1.31Z" style="fill: red; stroke-width: 0px;"/>
    <path d="M145.72,30.81v1.12h.03c.3-.43.66-.76,1.08-.99.42-.23.9-.35,1.45-.35s1,.1,1.43.3c.43.2.76.56.98,1.07.25-.36.58-.68,1-.96.42-.28.92-.42,1.5-.42.44,0,.84.05,1.22.16s.69.28.96.51c.27.23.47.54.62.92.15.38.22.83.22,1.37v5.54h-2.27v-4.69c0-.28-.01-.54-.03-.78-.02-.25-.08-.46-.18-.64-.1-.18-.24-.33-.42-.43-.19-.11-.44-.16-.76-.16s-.58.06-.78.18-.35.28-.46.48c-.11.2-.19.42-.22.67-.04.25-.06.5-.06.76v4.61h-2.27v-4.64c0-.25,0-.49-.02-.73-.01-.24-.06-.46-.14-.66-.08-.2-.21-.37-.4-.49s-.46-.18-.82-.18c-.11,0-.25.02-.42.07-.18.05-.35.14-.51.27s-.31.33-.42.58c-.12.25-.18.58-.18.98v4.8h-2.27v-8.27h2.14Z" style="fill: red; stroke-width: 0px;"/>
    <path d="M73.22,47.77v-2.11h9.36v2.11h-3.42v9.31h-2.51v-9.31h-3.42Z" style="fill: red; stroke-width: 0px;"/>
    <path d="M84.93,59.54c-.44.29-1.05.43-1.82.43-.23,0-.47,0-.7-.02-.23-.02-.46-.03-.7-.06v-1.87c.21.02.43.04.66.06.22.02.45.03.67.02.3-.03.52-.15.66-.35.14-.2.22-.43.22-.67,0-.18-.03-.35-.1-.51l-2.9-7.76h2.42l1.87,5.66h.03l1.81-5.66h2.35l-3.46,9.3c-.25.67-.59,1.15-1.02,1.44Z" style="fill: red; stroke-width: 0px;"/>
    <path d="M92.34,48.81v1.06h.03c.28-.45.63-.77,1.06-.98.43-.2.9-.3,1.41-.3.65,0,1.21.12,1.68.37.47.25.86.57,1.17.98s.54.88.69,1.42.22,1.1.22,1.69c0,.55-.08,1.09-.22,1.6-.15.51-.38.97-.68,1.36s-.68.71-1.14.94c-.45.23-.98.35-1.59.35-.51,0-.98-.1-1.42-.31-.43-.21-.79-.51-1.06-.92h-.03v3.92h-2.27v-11.17h2.16ZM95.29,55.37c.25-.15.45-.34.61-.58.15-.24.26-.52.33-.84.06-.32.1-.65.1-.98s-.03-.66-.1-.98c-.07-.32-.18-.61-.34-.86-.16-.25-.37-.45-.62-.61-.25-.15-.56-.23-.92-.23s-.69.08-.94.23c-.25.15-.45.35-.61.6-.16.25-.26.53-.33.85-.06.32-.1.65-.1.99s.04.66.1.98c.07.32.18.6.34.84.15.24.36.43.62.58s.57.22.93.22.69-.07.94-.22Z" style="fill: red; stroke-width: 0px;"/>
    <path d="M100.01,51.15c.2-.54.49-1,.86-1.38.37-.38.82-.67,1.34-.88s1.11-.31,1.76-.31,1.24.1,1.77.31c.53.21.98.5,1.35.88.37.38.66.84.86,1.38.2.54.3,1.14.3,1.8s-.1,1.26-.3,1.79c-.2.53-.49.99-.86,1.37-.37.38-.82.67-1.35.87-.53.2-1.12.3-1.77.3s-1.24-.1-1.76-.3c-.52-.2-.97-.49-1.34-.87-.37-.38-.66-.83-.86-1.37-.2-.53-.3-1.13-.3-1.79s.1-1.26.3-1.8ZM102.07,53.92c.06.31.17.6.33.85.16.25.36.45.62.6s.58.22.96.22.71-.07.97-.22c.26-.15.47-.35.62-.6.16-.25.26-.53.33-.85.06-.31.1-.64.1-.97s-.03-.66-.1-.98c-.06-.32-.17-.6-.33-.85-.15-.25-.36-.45-.62-.6-.26-.15-.58-.23-.97-.23s-.7.08-.96.23c-.26.15-.46.35-.62.6-.15.25-.26.53-.33.85-.06.32-.1.65-.1.98s.03.65.1.97Z" style="fill: red; stroke-width: 0px;"/>
    <path d="M112.07,45.66v11.42h-2.27v-11.42h2.27Z" style="fill: red; stroke-width: 0px;"/>
    <path d="M113.91,51.15c.2-.54.49-1,.86-1.38.37-.38.82-.67,1.34-.88s1.11-.31,1.76-.31,1.24.1,1.77.31c.53.21.98.5,1.35.88.37.38.66.84.86,1.38.2.54.3,1.14.3,1.8s-.1,1.26-.3,1.79c-.2.53-.49.99-.86,1.37-.37.38-.82.67-1.35.87-.53.2-1.12.3-1.77.3s-1.24-.1-1.76-.3c-.52-.2-.97-.49-1.34-.87-.37-.38-.66-.83-.86-1.37-.2-.53-.3-1.13-.3-1.79s.1-1.26.3-1.8ZM115.97,53.92c.06.31.17.6.33.85.16.25.36.45.62.6s.58.22.96.22.71-.07.97-.22c.26-.15.47-.35.62-.6.16-.25.26-.53.33-.85.06-.31.1-.64.1-.97s-.03-.66-.1-.98c-.06-.32-.17-.6-.33-.85-.15-.25-.36-.45-.62-.6-.26-.15-.58-.23-.97-.23s-.7.08-.96.23c-.26.15-.46.35-.62.6-.15.25-.26.53-.33.85-.06.32-.1.65-.1.98s.03.65.1.97Z" style="fill: red; stroke-width: 0px;"/>
    <path d="M131.45,57.69c-.09.43-.29.82-.58,1.19-.3.37-.73.68-1.3.94-.57.26-1.32.38-2.27.38-.41,0-.82-.05-1.24-.15-.42-.1-.81-.26-1.15-.47s-.63-.49-.86-.82c-.23-.34-.36-.74-.39-1.21h2.26c.11.43.31.72.62.89.31.17.67.25,1.07.25.64,0,1.11-.19,1.4-.58.29-.38.43-.87.42-1.46v-1.09h-.03c-.25.44-.59.76-1.05.97-.45.21-.93.31-1.43.31-.62,0-1.15-.11-1.6-.33s-.82-.52-1.1-.9c-.29-.38-.5-.82-.63-1.33-.13-.51-.2-1.04-.2-1.61,0-.53.08-1.05.23-1.54.15-.5.38-.93.68-1.31.3-.38.67-.68,1.11-.9.44-.22.95-.34,1.53-.34.54,0,1.02.1,1.43.3.41.2.75.54,1.03,1.02h.03v-1.1h2.16v7.74c0,.33-.05.71-.14,1.14ZM128.34,54.94c.25-.13.45-.3.61-.51s.28-.46.36-.73.12-.56.12-.86c0-.34-.03-.66-.1-.97-.06-.3-.17-.57-.32-.81-.15-.23-.35-.42-.59-.56-.25-.14-.56-.21-.93-.21-.32,0-.59.06-.82.19-.23.13-.42.3-.58.52-.16.22-.27.47-.34.75-.07.28-.1.58-.1.89s.03.59.09.89.16.56.3.79c.14.23.33.43.57.58s.53.22.88.22c.32,0,.6-.06.85-.19Z" style="fill: red; stroke-width: 0px;"/>
    <path d="M136.47,59.54c-.44.29-1.05.43-1.82.43-.23,0-.47,0-.7-.02-.23-.02-.46-.03-.7-.06v-1.87c.21.02.43.04.66.06.22.02.45.03.67.02.3-.03.52-.15.66-.35.14-.2.22-.43.22-.67,0-.18-.03-.35-.1-.51l-2.9-7.76h2.42l1.87,5.66h.03l1.81-5.66h2.35l-3.46,9.3c-.25.67-.59,1.15-1.02,1.44Z" style="fill: red; stroke-width: 0px;"/>
  </g>
</svg>