<?xml version="1.0" encoding="UTF-8"?>
<svg id="Layer_1" data-name="Layer 1" xmlns="http://www.w3.org/2000/svg" viewBox="0 0 68 68">
  <g id="icon">
    <path d="M48.18,51.21c-2.15.14-4.3-.08-6.38-.64h-.08c-2.27-.58-4.48-1.39-6.74-2.03-7.05-2.22-14.7-1.57-21.27,1.81.48.59.98,1.18,1.51,1.7,2.03-.36,4.08-.54,6.15-.54,1.38,0,2.76.09,4.12.25.96.12,1.89.26,2.81.45h-.57c-3.58,0-7.14.55-10.55,1.64.63.53,1.28,1.04,1.95,1.51,1.1-.11,2.2-.17,3.32-.17,2.63,0,5.25.3,7.81.89-2.67.05-5.33.44-7.89,1.18,3.61,1.81,7.59,2.75,11.63,2.74,1.75,0,3.51-.17,5.22-.53,1.1-.22,2.19-.52,3.25-.89l.33-.12c.71-.25,1.39-.54,2.07-.85-1.32-.75-2.67-1.42-4.07-2.02.71,0,1.42.07,2.14.08h.51c1.83,0,3.65-.11,5.46-.34.86-.6,1.68-1.24,2.46-1.94h0c-.21.19-1.26.07-1.56.07h-1.56c-3.42-.04-6.83-.48-10.14-1.34,2.2.36,4.43.53,6.67.53,2.73,0,5.45-.26,8.13-.79.4-.43.78-.86,1.18-1.31-.34.41-2.42.43-2.97.48-1,.11-1.95.09-2.94.17Z" style="fill: #c60000; stroke-width: 0px;"/>
    <path d="M39.05,22.96h.33c2.43,0,5.08,1.88,5.02,4.49-.02,1.62-1.08,3.05-2.62,3.55h0c-.77.25-1.49.65-2.1,1.18.71.13,1.35.53,1.78,1.11.17.23.31.48.4.74.85-.77,2.07-.96,3.12-.5-.08,0,.53-.93.59-1,.24-.28.52-.51.84-.69,1.21-.7,2.73-.56,3.78.35.84-1.93,3.08-2.82,5.02-1.99,1.06.46,1.86,1.38,2.17,2.5.19-.05.38-.08.58-.08.89,0,1.7.55,2.04,1.37,0-2.48-.35-4.95-1.05-7.33-3.19-3.95-7.07-7.27-11.45-9.82-3.07,1.67-5.91,3.72-8.45,6.11Z" style="fill: #c60000; stroke-width: 0px;"/>
    <path d="M52.91,40.85c-1.18-.44-2.45-.83-3.7-1.18-.71-.19-1.43-.37-2.15-.52-11.05-2.43-22.6-.52-32.29,5.32-1.18.71-2.36,1.45-3.43,2.27.36.65.76,1.29,1.18,1.9,2.27-1.78,4.87-3.09,7.65-3.88,2.82-.79,5.77-1,8.67-.61,2.26.28,4.46.92,6.52,1.89h0c6.41,3.08,13.71,3.74,20.56,1.86.94-1.46,1.73-3.02,2.36-4.64.08-.24-4.86-2.16-5.39-2.4Z" style="fill: #c60000; stroke-width: 0px;"/>
    <path d="M59.82,34.92c-.31-.92-1.31-1.42-2.23-1.11-.47.16-.86.51-1.06.97.38-1.65-.65-3.29-2.3-3.67s-3.29.65-3.67,2.3c-.01.06-.03.12-.04.19-.53-.6-1.23-1.03-2-1.25-1.36-.28-2.68.6-2.95,1.96-.1.47-.05.95.12,1.4-.22-.95-1.04-1.65-2.02-1.7-.96,0-1.81.61-2.09,1.52,0-1.38-1.11-2.51-2.49-2.52-1.38,0-2.51,1.11-2.52,2.49,0,.2.02.41.07.6,7.76-.22,15.43,1.62,22.25,5.32.52-1.71.85-3.47,1-5.25.02-.26.02-.51,0-.77,0-.16-.04-.33-.08-.48Z" style="fill: #c60000; stroke-width: 0px;"/>
    <path d="M16.5,41.8c.64-.37,1.29-.72,1.95-1.05,1.74-.87,3.53-1.63,5.37-2.26l.77-.26c.09-.24.2-.47.31-.71,1.68-3.67,4.72-6.54,8.47-8.01l.79-.28c.8-.28,1.63-.48,2.47-.61.9,0,1.79-.14,2.64-.43.89-.49,1.37-1.5,1.18-2.51-.19-.67-.57-1.27-1.1-1.74-3.92-3.83-8.54-6.88-13.61-8.97-2.34.95-4.6,2.11-6.72,3.47l-.3.18c-2.74,1.8-5.27,3.92-7.52,6.31,1.85-3.65,4.51-6.82,7.79-9.27l.66-.47c11.49-8.01,27.24-5.62,35.82,5.45h.84c-7.35-12.26-23.22-16.3-35.53-9.03-.4.24-.78.47-1.18.73-4.95,3.3-8.63,8.2-10.41,13.89-.53,1.68-.88,3.42-1.05,5.18-.13.85-.13,1.71-.13,2.59,0,.88.05,1.76.14,2.64.07.77.19,1.52.33,2.27.45,2.35,1.22,4.62,2.29,6.76.96-.77,1.96-1.5,2.98-2.21s1.81-1.12,2.75-1.65ZM25.31,29.05c0-.08,0-.09.09-.09h.5c.06,0,.08,0,.08.07v3.12c0,.06,0,.07-.08.07h-.57s-.07.02-.09,0c-.4-.7-.82-1.38-1.18-2.07v-.07h0v2.09s0,.09-.08.08h-.69v-3.23c0-.06,0-.07.07-.07h.56s.09.03.12.07c.33.58.67,1.18,1.02,1.73.08.14.17.28.26.41,0,0,0-2.12,0-2.12ZM11.55,31.42c-.54-3.75,2.04-7.24,5.79-7.82,2.81-.42,5.6.87,7.09,3.29.14.24.07.27-.17.26h-1.61c-.15.01-.29-.05-.39-.17-1.28-1.46-3.28-2.04-5.14-1.5-1.92.45-3.39,1.99-3.75,3.92-.62,2.78,1.13,5.54,3.92,6.17.14.03.27.06.41.07,1.65.27,3.32-.29,4.48-1.49.07-.06.12-.17.22-.17h2.08c-.2.4-.45.76-.76,1.09-1.76,2.12-4.64,2.95-7.26,2.08-2.69-.68-4.66-2.97-4.93-5.73ZM20.65,30.76c.02.16.05.33.11.48.13.34.48.53.83.46.29-.01.54-.22.6-.51.02-.06.08-.1.14-.09h.52v.07c-.09.53-.48.95-1,1.08-.47.14-.97.05-1.36-.24-.26-.2-.44-.48-.51-.79-.15-.46-.15-.97,0-1.43.17-.46.58-.8,1.06-.87.4-.1.82-.05,1.18.14.33.17.56.48.63.85,0,.11,0,.12-.09.12h-.48c-.07,0-.11,0-.13-.09-.05-.21-.21-.38-.43-.44-.42-.15-.88.08-1.02.5-.01.03-.02.07-.03.11-.04.22-.03.44,0,.66h-.01ZM16.79,30.04v-1.11c0-.06,0-.08.08-.08h.58s.08,0,.08.08v2.06c-.02.09-.02.17,0,.26.09.26.36.42.64.38h.2c.25-.06.42-.3.39-.56v-2.12c0-.12,0-.11.11-.11h.53s.07,0,.07.07v2.08c0,.27-.08.54-.24.77-.16.2-.39.34-.65.39-.34.09-.7.09-1.04,0-.47-.12-.78-.55-.76-1.03v-1.09ZM15.49,29.04c0-.07,0-.08.08-.08h.54c.07,0,.08,0,.08.08v3.1c0,.07,0,.09-.09.08h-.52c-.07,0-.09,0-.09-.08v-3.1Z" style="fill: #c60000; stroke-width: 0px;"/>
  </g>
</svg>