<?xml version="1.0" encoding="UTF-8"?>
<svg id="Layer_1" xmlns="http://www.w3.org/2000/svg" viewBox="0 0 68 68">
  <g id="icon">
    <path d="M52.55,56.5c-2.81.18-5.63-.1-8.35-.83h-.11c-2.97-.76-5.86-1.82-8.81-2.66-9.22-2.9-19.22-2.05-27.82,2.36.63.77,1.28,1.55,1.98,2.23,2.65-.47,5.34-.71,8.04-.71,1.8,0,3.6.11,5.39.32,1.25.15,2.47.34,3.68.59h-.74c-4.68,0-9.34.72-13.8,2.15.82.7,1.67,1.36,2.55,1.98,1.44-.14,2.87-.22,4.34-.22,3.44,0,6.87.39,10.22,1.16-3.49.06-6.97.58-10.32,1.55,4.72,2.37,9.93,3.6,15.21,3.59,2.29,0,4.58-.23,6.83-.7,1.44-.29,2.86-.68,4.25-1.16l.43-.15c.93-.32,1.82-.71,2.7-1.11-1.72-.98-3.5-1.86-5.32-2.64.93,0,1.85.09,2.8.11h.66c2.39,0,4.77-.15,7.14-.45,1.12-.78,2.19-1.63,3.21-2.53h0c-.28.25-1.65.09-2.04.09h-2.04c-4.47-.05-8.93-.63-13.26-1.75,2.88.47,5.8.7,8.72.7,3.57,0,7.13-.35,10.63-1.04.53-.56,1.02-1.13,1.55-1.72-.45.54-3.17.56-3.88.63-1.31.14-2.55.12-3.85.22Z" style="fill: red;"/>
    <path d="M40.6,19.57h.43c3.18,0,6.65,2.46,6.57,5.87-.03,2.12-1.41,3.99-3.43,4.64h0c-1.01.33-1.94.85-2.75,1.55.93.18,1.76.69,2.33,1.45.22.3.4.62.53.97,1.11-1,2.71-1.26,4.08-.65-.11,0,.7-1.22.77-1.31.31-.36.68-.66,1.1-.9,1.58-.92,3.57-.73,4.95.46,1.09-2.53,4.03-3.69,6.56-2.6,1.39.6,2.43,1.8,2.83,3.26.25-.07.5-.1.76-.11,1.17.01,2.22.72,2.67,1.79,0-3.24-.46-6.47-1.38-9.58-4.17-5.16-9.24-9.51-14.98-12.84-4.01,2.18-7.72,4.87-11.05,7.99Z" style="fill: red;"/>
    <path d="M58.73,42.96c-1.55-.57-3.2-1.08-4.84-1.55-.93-.25-1.87-.48-2.81-.68-14.45-3.18-29.56-.69-42.22,6.95-1.55.93-3.09,1.9-4.48,2.97.47.85.99,1.69,1.55,2.49,2.97-2.32,6.37-4.05,10-5.07,3.69-1.04,7.55-1.31,11.34-.8,2.96.37,5.83,1.21,8.53,2.47h0c8.38,4.03,17.93,4.89,26.89,2.43,1.23-1.92,2.27-3.95,3.09-6.07.11-.31-6.35-2.83-7.05-3.14Z" style="fill: red;"/>
    <path d="M67.77,35.21c-.4-1.21-1.71-1.86-2.91-1.45-.62.21-1.12.67-1.38,1.27.49-2.15-.85-4.3-3.01-4.8s-4.3.85-4.8,3.01c-.02.08-.03.16-.05.24-.7-.78-1.6-1.35-2.61-1.64-1.77-.36-3.5.79-3.86,2.56-.12.61-.07,1.25.15,1.83-.29-1.25-1.36-2.15-2.64-2.23-1.25,0-2.36.8-2.74,1.99,0-1.81-1.45-3.28-3.26-3.29-1.81,0-3.28,1.45-3.29,3.26,0,.27.03.53.09.79,10.14-.29,20.18,2.11,29.1,6.95.67-2.24,1.12-4.54,1.31-6.86.02-.33.02-.67,0-1-.01-.21-.05-.43-.11-.63Z" style="fill: red;"/>
    <path d="M11.11,44.2c.83-.48,1.68-.94,2.55-1.38,2.27-1.14,4.61-2.13,7.02-2.95l1-.34c.12-.31.26-.62.4-.93,2.19-4.8,6.17-8.55,11.08-10.48l1.04-.37c1.05-.36,2.13-.63,3.23-.8,1.17.01,2.34-.18,3.45-.56,1.17-.64,1.79-1.97,1.55-3.28-.25-.88-.75-1.67-1.44-2.27-5.13-5.01-11.17-9-17.8-11.73-3.07,1.24-6.01,2.76-8.79,4.54l-.39.23c-3.59,2.36-6.89,5.13-9.83,8.25,2.41-4.77,5.9-8.92,10.18-12.12l.87-.62C30.24-1.07,50.84,2.07,62.07,16.54h1.1C53.56.5,32.8-4.78,16.71,4.73c-.53.31-1.02.62-1.55.96C8.68,10.01,3.88,16.42,1.55,23.85c-.69,2.2-1.15,4.47-1.38,6.77C0,31.73,0,32.86,0,34c0,1.15.06,2.3.19,3.45.09,1,.25,1.99.43,2.97.58,3.07,1.59,6.05,3,8.84,1.25-1,2.57-1.96,3.89-2.89s2.36-1.47,3.6-2.16ZM22.64,27.52c0-.11,0-.12.12-.12h.65c.08,0,.11,0,.11.09v4.08c0,.08,0,.09-.11.09h-.74s-.09.02-.12,0c-.53-.91-1.07-1.81-1.55-2.7v-.09h0v2.74s0,.12-.11.11h-.9v-4.22c0-.08,0-.09.09-.09h.73c.06,0,.12.04.15.09.43.76.88,1.55,1.33,2.26.11.19.22.37.34.54v-2.77ZM4.64,30.63c-.7-4.91,2.67-9.47,7.57-10.23,3.67-.55,7.32,1.14,9.27,4.3.19.31.09.36-.22.34h-2.1c-.2.01-.39-.07-.51-.22-1.67-1.91-4.29-2.67-6.72-1.96-2.51.58-4.43,2.6-4.9,5.13-.81,3.64,1.48,7.25,5.12,8.06.18.04.36.07.54.1,2.15.35,4.34-.37,5.86-1.95.09-.08.15-.22.29-.22h2.72c-.26.52-.59,1-.99,1.42-2.3,2.78-6.07,3.86-9.49,2.72-3.51-.89-6.09-3.89-6.44-7.5ZM16.54,29.77c.02.22.07.43.14.63.16.44.62.69,1.08.6.38-.02.71-.29.79-.66.03-.08.1-.13.19-.12h.68v.09c-.11.69-.63,1.25-1.31,1.41-.61.18-1.27.07-1.78-.31-.34-.26-.57-.62-.66-1.04-.2-.61-.2-1.26,0-1.87.22-.61.75-1.05,1.39-1.14.52-.13,1.07-.07,1.55.19.43.22.74.63.82,1.11,0,.14,0,.15-.12.15h-.63c-.09,0-.14,0-.17-.12-.06-.28-.28-.5-.56-.57-.55-.19-1.15.1-1.34.65-.02.05-.03.09-.04.14-.05.29-.04.58,0,.87h-.02ZM11.5,28.82v-1.45c0-.08,0-.11.11-.11h.76s.11,0,.11.11v2.69c-.02.11-.02.23,0,.34.12.34.47.55.83.49h.26c.33-.08.54-.39.51-.73v-2.77c0-.15,0-.14.14-.14h.7s.09,0,.09.09v2.72c0,.36-.1.71-.31,1-.21.27-.52.45-.85.51-.44.12-.92.12-1.36,0-.61-.15-1.02-.72-.99-1.34v-1.42ZM9.8,27.51c0-.09,0-.11.11-.11h.71c.09,0,.11,0,.11.11v4.05c0,.09,0,.12-.12.11h-.68c-.09,0-.12,0-.12-.11v-4.05Z" style="fill: red;"/>
  </g>
</svg>