<?xml version="1.0" encoding="UTF-8"?>
<svg id="Layer_1" data-name="Layer 1" xmlns="http://www.w3.org/2000/svg" viewBox="0 0 117 68">
  <g>
    <g id="background">
      <circle cx="34" cy="34" r="34" style="fill: #006ccc; stroke-width: 0px;"/>
    </g>
    <g id="Layer_3" data-name="Layer 3">
      <path d="M51.56,35c-.8,0-1.44.65-1.44,1.44,0,.8.65,1.44,1.44,1.44.8,0,1.44-.65,1.44-1.44,0-.02,0-.03,0-.05-.03-.78-.66-1.39-1.44-1.39Z" style="fill: #fff; stroke-width: 0px;"/>
      <path d="M28.2,49.4c-3.09,0-5.6,2.51-5.6,5.6h11.2c0-3.09-2.51-5.6-5.6-5.6Z" style="fill: #fff; stroke-width: 0px;"/>
      <path d="M29.37,16.24c3.62.63,7.17,1.67,10.56,3.09,2.68,1.26,5.61,1.92,8.57,1.92,6.78,0,9-2.67,9.09-2.78l-1.17-.95s-2,2.23-7.92,2.23c-2.77,0-5.5-.62-8-1.81-3.49-1.46-7.13-2.53-10.86-3.18-11.2-2-19.73,4.37-20.09,4.64l.92,1.2c.07-.07,8.37-6.28,18.9-4.36Z" style="fill: #fff; stroke-width: 0px;"/>
      <path d="M57.57,35.62c-2.56-1.97-5.51-3.39-8.66-4.15l-3.6-2.55c-.9-.64-2.13-.53-2.91.25l-3.18,3.18c-1.28.5-2.51,1.11-3.68,1.83l-7.39-2c-.53-.15-1.1.04-1.43.48-.33.44-.36,1.04-.07,1.51l2.35,3.77-2.31,3.79c-.36.64-.14,1.46.51,1.83.19.11.41.17.63.17.12,0,.24-.02.36-.05l7.46-2c1.94,1.19,4.06,2.07,6.28,2.6l-.2.4c-.46.93-.08,2.05.85,2.51.25.13.53.19.81.19h2.18c1.03,0,1.86-.84,1.86-1.87v-.91c3.71-.58,7.22-2.09,10.18-4.41,1.26-.94,1.52-2.73.58-3.99-.16-.22-.36-.42-.58-.58h-.04ZM56.67,39c-2.71,2.1-5.9,3.51-9.28,4.09v-2.53h-3.64l-1.17,2.34c-3.56-.88-6.85-2.59-9.61-5,2.49-2.16,5.4-3.77,8.55-4.74l6.53-.33c3.14.67,6.08,2.04,8.62,4,.35.25.55.66.55,1.09,0,.43-.2.83-.55,1.08Z" style="fill: #fff; stroke-width: 0px;"/>
      <path d="M21.78,44.78l-1.93,1.94v-5.79c.02-1.14-.34-2.25-1-3.17l-1.22-1.65,3.27-3.31-2.12-2.12-3,3-1.87-2.55-2.42,1.78,4.88,6.64c.3.41.46.9.46,1.4v2.84l-4.42-4.4-2.12,2.12,6.56,6.49v7h3v-3.21c.07-.61.35-1.18.79-1.62l3.26-3.27-2.12-2.12Z" style="fill: #fff; stroke-width: 0px;"/>
      <circle cx="25" cy="22" r="2" style="fill: #fff; stroke-width: 0px;"/>
      <circle cx="17" cy="26" r="2" style="fill: #fff; stroke-width: 0px;"/>
    </g>
  </g>
  <g>
    <g id="background-2" data-name="background">
      <circle cx="83" cy="34" r="34" style="fill: #009020; stroke-width: 0px;"/>
    </g>
    <g id="Layer_3-2" data-name="Layer 3">
      <path d="M76.63,50v-8.71c.79.53,1.72.82,2.67.81,2.65,0,4.8-2.15,4.8-4.8,0,0,0,0,0-.01,0-.34-.03-.67-.11-1,2.37-2.19,3.72-5.26,3.72-8.49v-4.48c-.06-6.38-5.29-11.51-11.67-11.45-4.19.04-8.03,2.35-10.04,6.03-5.11,1.28-8.21,6.46-6.93,11.57.59,2.35,2.05,4.38,4.08,5.7-.21.69-.31,1.4-.31,2.12,0,4.15,3.36,7.51,7.51,7.52.65,0,1.3-.09,1.93-.26v5.45h4.35ZM70.32,43.31c-3.31,0-6-2.69-6-6,0-.75.14-1.48.41-2.18l.27-.63-.57-.32c-3.89-2.09-5.36-6.94-3.27-10.83,1.13-2.11,3.16-3.61,5.51-4.07l.36-.07.16-.33c2.44-4.99,8.46-7.06,13.45-4.63,3.46,1.69,5.66,5.21,5.65,9.07v4.51c0,2.96-1.32,5.77-3.59,7.67l-.38.32.15.48c.11.32.17.66.17,1,0,1.82-1.49,3.29-3.32,3.28-.87,0-1.71-.35-2.32-.97l-.35-.35v-9.26h-4.3v3.57l-1.13-.38c-.6-.21-1-.77-1-1.41v-.38h-2.15v.66c0,1.4.56,2.75,1.55,3.74l2.63,2.63v4.57c-.62.21-1.27.31-1.93.31Z" style="fill: #fff; stroke-width: 0px;"/>
      <path d="M78,52c-2.76,0-5,2.24-5,5h10c0-2.76-2.24-5-5-5Z" style="fill: #fff; stroke-width: 0px;"/>
      <path d="M97.53,47.15v-3.77h7.68l-4.12-7.14h2.57l-3.73-6.46h2.59l-6.52-11.28-6.51,11.28h2.58l-3.72,6.46h2.57l-4.13,7.14h7.69v2.62h-.48c-3.31,0-6,2.69-6,6h12c0-1.92-.92-3.72-2.47-4.85ZM89.39,41.88l4.12-7.14h-2.57l3.73-6.46h-2.58l3.91-6.78,3.92,6.78h-2.59l3.73,6.46h-2.57l4.13,7.14h-13.23Z" style="fill: #fff; stroke-width: 0px;"/>
      <path d="M83.5,46c-1.93,0-3.5,1.57-3.5,3.5h7c0-1.93-1.57-3.5-3.5-3.5Z" style="fill: #fff; stroke-width: 0px;"/>
    </g>
  </g>
</svg>