<?xml version="1.0" encoding="UTF-8"?>
<svg id="Layer_1" data-name="Layer 1" xmlns="http://www.w3.org/2000/svg" viewBox="0 0 68 68">
  <g id="icon">
    <circle cx="34" cy="34" r="34" style="fill: #d88a0f; stroke-width: 0px;"/>
    <path d="M37,51c-2.76,0-5,2.24-5,5h10c0-2.76-2.24-5-5-5Z" style="fill: #fff; stroke-width: 0px;"/>
    <path d="M31.5,45c-1.93,0-3.5,1.57-3.5,3.5h7c0-1.93-1.57-3.5-3.5-3.5Z" style="fill: #fff; stroke-width: 0px;"/>
    <path d="M58.11,45.75l-2.11-5.27v-9.31l-3.84-1.92-5.13-4c-.48-.58-3.89-4.66-5-5.89v-.08h-.07l-.14-.14c-.87-.65-1.84-1.15-2.88-1.48-.84-.28-1.63-.66-2.37-1.15-.79-.56-1.76-.79-2.71-.65-.61,0-1.44,0-1.66-.22-.89-.89-3,0-6.21,2.54l-4.33,2.59-2.66,2.6-4.52,1.81-2,5,1.79,3.57-.77,3.81-2.79,1.84,1,6.35h10v-7.52l1.31-2c.66.22,1.39.14,1.98-.23,1-1,1.95,0,3,0,2,0,4-1,6,1,.17.17.31.29.43.39l2,8.36h5.57c-.64.96-.99,2.09-1,3.25h12c-.01-1.16-.36-2.29-1-3.25h6.11ZM35.85,36.89l-.85-2.62-2.06-3.14h-3c-1.74,0-4.79.12-4.92.12h-.38l-4.34,6.5v6.48h-7.3l-.69-4.14,2.48-1.65h0l3.5-1.75-.66-1.34-2.43,1.21.61-3-1.72-3.46,1.26-3.1,4.51,1.8h6.14v-1.5h-5.86l-3.41-1.37,3.09-1.23,2.66-2.7,4.3-2.57.08-.06c1.76-1.41,3.74-2.59,4.33-2.6.78.5,1.72.7,2.64.58.56-.06,1.12.01,1.65.21.87.64,1.85,1.12,2.88,1.44l1.15.48c-2.23.28-5.14.69-5.62.76h-.16l-3.15,2.1.84,1.24,2.85-1.9c2.3-.33,5.56-.77,7-.92,1.14,1.29,3.39,4,4.62,5.44l3.68,2.91-3.87,3.1h-.3c-.62-.81-2.47-2.4-8-5.89l-.19-.11h-3.21v1.5h2.78c2.25,1.39,4.43,2.89,6.53,4.5h-3.31v1.5h6.26l4.56-3.65.47.37,3.21,1.62v8.68l1.39,3.48h-5.23c-2.16-1.66-5.16-1.66-7.32,0h-5.75l-1.74-7.32Z" style="fill: #fff; stroke-width: 0px;"/>
  </g>
</svg>