<?xml version="1.0" encoding="UTF-8"?>
<svg id="Layer_1" data-name="Layer 1" xmlns="http://www.w3.org/2000/svg" viewBox="0 0 117 68">
  <g id="icon">
    <circle cx="34" cy="34" r="34" style="fill: #d88a0f; stroke-width: 0px;"/>
    <path d="M37,51c-2.76,0-5,2.24-5,5h10c0-2.76-2.24-5-5-5Z" style="fill: #fff; stroke-width: 0px;"/>
    <path d="M31.5,45c-1.93,0-3.5,1.57-3.5,3.5h7c0-1.93-1.57-3.5-3.5-3.5Z" style="fill: #fff; stroke-width: 0px;"/>
    <path d="M58.11,45.75l-2.11-5.27v-9.31l-3.84-1.92-5.13-4c-.48-.58-3.89-4.66-5-5.89v-.08h-.07l-.14-.14c-.87-.65-1.84-1.15-2.88-1.48-.84-.28-1.63-.66-2.37-1.15-.79-.56-1.76-.79-2.71-.65-.61,0-1.44,0-1.66-.22-.89-.89-3,0-6.21,2.54l-4.33,2.59-2.66,2.6-4.52,1.81-2,5,1.79,3.57-.77,3.81-2.79,1.84,1,6.35h10v-7.52l1.31-2c.66.22,1.39.14,1.98-.23,1-1,1.95,0,3,0,2,0,4-1,6,1,.17.17.31.29.43.39l2,8.36h5.57c-.64.96-.99,2.09-1,3.25h12c-.01-1.16-.36-2.29-1-3.25h6.11ZM35.85,36.89l-.85-2.62-2.06-3.14h-3c-1.74,0-4.79.12-4.92.12h-.38l-4.34,6.5v6.48h-7.3l-.69-4.14,2.48-1.65h0l3.5-1.75-.66-1.34-2.43,1.21.61-3-1.72-3.46,1.26-3.1,4.51,1.8h6.14v-1.5h-5.86l-3.41-1.37,3.09-1.23,2.66-2.7,4.3-2.57.08-.06c1.76-1.41,3.74-2.59,4.33-2.6.78.5,1.72.7,2.64.58.56-.06,1.12.01,1.65.21.87.64,1.85,1.12,2.88,1.44l1.15.48c-2.23.28-5.14.69-5.62.76h-.16l-3.15,2.1.84,1.24,2.85-1.9c2.3-.33,5.56-.77,7-.92,1.14,1.29,3.39,4,4.62,5.44l3.68,2.91-3.87,3.1h-.3c-.62-.81-2.47-2.4-8-5.89l-.19-.11h-3.21v1.5h2.78c2.25,1.39,4.43,2.89,6.53,4.5h-3.31v1.5h6.26l4.56-3.65.47.37,3.21,1.62v8.68l1.39,3.48h-5.23c-2.16-1.66-5.16-1.66-7.32,0h-5.75l-1.74-7.32Z" style="fill: #fff; stroke-width: 0px;"/>
  </g>
  <g>
    <g id="background">
      <circle cx="83" cy="34" r="34" style="fill: #006ccc; stroke-width: 0px;"/>
    </g>
    <g id="Layer_3" data-name="Layer 3">
      <path d="M100.56,35c-.8,0-1.44.65-1.44,1.44,0,.8.65,1.44,1.44,1.44.8,0,1.44-.65,1.44-1.44,0-.02,0-.03,0-.05-.03-.78-.66-1.39-1.44-1.39Z" style="fill: #fff; stroke-width: 0px;"/>
      <path d="M77.2,49.4c-3.09,0-5.6,2.51-5.6,5.6h11.2c0-3.09-2.51-5.6-5.6-5.6Z" style="fill: #fff; stroke-width: 0px;"/>
      <path d="M78.37,16.24c3.62.63,7.17,1.67,10.56,3.09,2.68,1.26,5.61,1.92,8.57,1.92,6.78,0,9-2.67,9.09-2.78l-1.17-.95s-2,2.23-7.92,2.23c-2.77,0-5.5-.62-8-1.81-3.49-1.46-7.13-2.53-10.86-3.18-11.2-2-19.73,4.37-20.09,4.64l.92,1.2c.07-.07,8.37-6.28,18.9-4.36Z" style="fill: #fff; stroke-width: 0px;"/>
      <path d="M106.57,35.62c-2.56-1.97-5.51-3.39-8.66-4.15l-3.6-2.55c-.9-.64-2.13-.53-2.91.25l-3.18,3.18c-1.28.5-2.51,1.11-3.68,1.83l-7.39-2c-.53-.15-1.1.04-1.43.48-.33.44-.36,1.04-.07,1.51l2.35,3.77-2.31,3.79c-.36.64-.14,1.46.51,1.83.19.11.41.17.63.17.12,0,.24-.02.36-.05l7.46-2c1.94,1.19,4.06,2.07,6.28,2.6l-.2.4c-.46.93-.08,2.05.85,2.51.25.13.53.19.81.19h2.18c1.03,0,1.86-.84,1.86-1.87v-.91c3.71-.58,7.22-2.09,10.18-4.41,1.26-.94,1.52-2.73.58-3.99-.16-.22-.36-.42-.58-.58h-.04ZM105.67,39c-2.71,2.1-5.9,3.51-9.28,4.09v-2.53h-3.64l-1.17,2.34c-3.56-.88-6.85-2.59-9.61-5,2.49-2.16,5.4-3.77,8.55-4.74l6.53-.33c3.14.67,6.08,2.04,8.62,4,.35.25.55.66.55,1.09,0,.43-.2.83-.55,1.08Z" style="fill: #fff; stroke-width: 0px;"/>
      <path d="M70.78,44.78l-1.93,1.94v-5.79c.02-1.14-.34-2.25-1-3.17l-1.22-1.65,3.27-3.31-2.12-2.12-3,3-1.87-2.55-2.42,1.78,4.88,6.64c.3.41.46.9.46,1.4v2.84l-4.42-4.4-2.12,2.12,6.56,6.49v7h3v-3.21c.07-.61.35-1.18.79-1.62l3.26-3.27-2.12-2.12Z" style="fill: #fff; stroke-width: 0px;"/>
      <circle cx="74" cy="22" r="2" style="fill: #fff; stroke-width: 0px;"/>
      <circle cx="66" cy="26" r="2" style="fill: #fff; stroke-width: 0px;"/>
    </g>
  </g>
</svg>