<?xml version="1.0" encoding="UTF-8"?>
<svg id="Layer_1" data-name="Layer 1" xmlns="http://www.w3.org/2000/svg" viewBox="0 0 117 68">
  <g>
    <g id="background">
      <circle cx="34" cy="34" r="34" style="fill: #009020; stroke-width: 0px;"/>
    </g>
    <g id="Layer_3" data-name="Layer 3">
      <path d="M27.63,50v-8.71c.79.53,1.72.82,2.67.81,2.65,0,4.8-2.15,4.8-4.8,0,0,0,0,0-.01,0-.34-.03-.67-.11-1,2.37-2.19,3.72-5.26,3.72-8.49v-4.48c-.06-6.38-5.29-11.51-11.67-11.45-4.19.04-8.03,2.35-10.04,6.03-5.11,1.28-8.21,6.46-6.93,11.57.59,2.35,2.05,4.38,4.08,5.7-.21.69-.31,1.4-.31,2.12,0,4.15,3.36,7.51,7.51,7.52.65,0,1.3-.09,1.93-.26v5.45h4.35ZM21.32,43.31c-3.31,0-6-2.69-6-6,0-.75.14-1.48.41-2.18l.27-.63-.57-.32c-3.89-2.09-5.36-6.94-3.27-10.83,1.13-2.11,3.16-3.61,5.51-4.07l.36-.07.16-.33c2.44-4.99,8.46-7.06,13.45-4.63,3.46,1.69,5.66,5.21,5.65,9.07v4.51c0,2.96-1.32,5.77-3.59,7.67l-.38.32.15.48c.11.32.17.66.17,1,0,1.82-1.49,3.29-3.32,3.28-.87,0-1.71-.35-2.32-.97l-.35-.35v-9.26h-4.3v3.57l-1.13-.38c-.6-.21-1-.77-1-1.41v-.38h-2.15v.66c0,1.4.56,2.75,1.55,3.74l2.63,2.63v4.57c-.62.21-1.27.31-1.93.31Z" style="fill: #fff; stroke-width: 0px;"/>
      <path d="M29,52c-2.76,0-5,2.24-5,5h10c0-2.76-2.24-5-5-5Z" style="fill: #fff; stroke-width: 0px;"/>
      <path d="M48.53,47.15v-3.77h7.68l-4.12-7.14h2.57l-3.73-6.46h2.59l-6.52-11.28-6.51,11.28h2.58l-3.72,6.46h2.57l-4.13,7.14h7.69v2.62h-.48c-3.31,0-6,2.69-6,6h12c0-1.92-.92-3.72-2.47-4.85ZM40.39,41.88l4.12-7.14h-2.57l3.73-6.46h-2.58l3.91-6.78,3.92,6.78h-2.59l3.73,6.46h-2.57l4.13,7.14h-13.23Z" style="fill: #fff; stroke-width: 0px;"/>
      <path d="M34.5,46c-1.93,0-3.5,1.57-3.5,3.5h7c0-1.93-1.57-3.5-3.5-3.5Z" style="fill: #fff; stroke-width: 0px;"/>
    </g>
  </g>
  <g id="icon">
    <circle cx="83" cy="34" r="34" style="fill: #00b0b1; stroke-width: 0px;"/>
    <polygon points="82.55 25 82.55 32.69 79.68 26.68 78.32 27.32 82.62 36.32 83.94 36.39 87.64 30.39 86.36 29.61 84.05 33.35 84.05 25 82.55 25" style="fill: #fff; stroke-width: 0px;"/>
    <path d="M63,33c-3.31,0-6,2.69-6,6h12c0-3.31-2.69-6-6-6Z" style="fill: #fff; stroke-width: 0px;"/>
    <path d="M74,32c-2.21,0-4,1.79-4,4h8c0-2.21-1.79-4-4-4Z" style="fill: #fff; stroke-width: 0px;"/>
    <path d="M95,25.23c-2.16,0-3.19,0-3.68-.09-1.04-2.24-2.47-4.27-4.23-6,1.59-1.17,3.34-2.12,5.19-2.82,1.71,0,11.59,6.91,11.59,11.6h1.5c0-5.44-10.43-13.1-13.09-13.1-1.14,0-4.44,2-6.27,3.24-4-3.76-8.75-6.67-10.59-6.67-3.36,0-16.53,9.67-16.53,16.53h1.5c0-6.08,12.8-15,15-15s15,9,15,15h1.5c0-.68-.12-1.35-.33-2,1.08,0,3.46.32,6.39,3,4,3.7,0,7.76-11,10-20.12,4.19-25.48,8.38-26.1,13.17,5.29,6.87,13.48,10.9,22.15,10.91.74,0,1.46,0,2.18-.09-5-3.16-.94-10.51,3.82-13.91,7-5,8-4,14-10,8-8-4-13.77-8-13.77Z" style="fill: #fff; stroke-width: 0px;"/>
  </g>
</svg>